- - -
Synopsis
- - -
Jem makes his own diamond and then proves they aren't forever. Dr Yan explains the science of popcorn, and Dallas investigates why we haven't cured cancer yet, meeting the team that hope to change that.


- - -
URL
- - -
    
http://www.bbc.co.uk/programmes/b013q2bg


- - -
Technical Details
- - -
General
Complete name                    : BBC.Bang.Goes.the.Theory.S05E01.Series.5.Episode.1/Bang_Goes_the_Theory_Series_5_-_Episode_1_b013q2bg_default.mp4
Format                           : MPEG-4
Format profile                   : Base Media
Codec ID                         : isom
File size                        : 534 MiB
Duration                         : 27mn 59s
Overall bit rate                 : 2 665 Kbps
Movie name                       : Bang Goes the Theory: Series 5: Episode 1
Album                            : Bang Goes the Theory: Series 5
Track name/Position              : 1
Track name/Total                 : 0
Performer                        : Bang Goes the Theory: Series 5
Genre                            : Factual,Science & Nature
Recorded date                    : 2011-08-15T19:30:00+01:00
Writing application              : Lavf53.6.0
Cover                            : Yes
Comment                          : Recorded using get_iplayer, by Aularon.
rtng                             : 2
stik                             : 1
desc                             : Science series. Jem makes his own diamond and then proves they aren't forever, Dr Yan explains the science of popcorn and Dallas investigates why we haven't cured cancer yet.
tvnn                             : BBC One
tvsh                             : Bang Goes the Theory: Series 5
tven                             : b013q2bg
catg                             : Factual,Science & Nature
tvsn                             : 5
tves                             : 1

Video
ID                               : 1
Format                           : AVC
Format/Info                      : Advanced Video Codec
Format profile                   : High@L4.1
Format settings, CABAC           : Yes
Format settings, ReFrames        : 6 frames
Format settings, GOP             : M=1, N=49
Codec ID                         : avc1
Codec ID/Info                    : Advanced Video Coding
Duration                         : 27mn 59s
Bit rate mode                    : Variable
Bit rate                         : 2 565 Kbps
Maximum bit rate                 : 3 500 Kbps
Width                            : 1 280 pixels
Height                           : 720 pixels
Display aspect ratio             : 16:9
Frame rate mode                  : Constant
Frame rate                       : 25.000 fps
Standard                         : PAL
Color space                      : YUV
Chroma subsampling               : 4:2:0
Bit depth                        : 8 bits
Scan type                        : Progressive
Bits/(Pixel*Frame)               : 0.111
Stream size                      : 513 MiB (96%)

Audio
ID                               : 2
Format                           : AAC
Format/Info                      : Advanced Audio Codec
Format profile                   : HE-AAC / LC
Codec ID                         : 40
Duration                         : 27mn 59s
Bit rate mode                    : Constant
Bit rate                         : 96.0 Kbps
Channel(s)                       : 2 channels
Channel positions                : Front: L R
Sampling rate                    : 48.0 KHz / 24.0 KHz
Compression mode                 : Lossy
Stream size                      : 19.0 MiB (4%)

